<?xml version="1.0" encoding="utf-8"?>
<!-- Generator: Adobe Illustrator 22.0.1, SVG Export Plug-In . SVG Version: 6.00 Build 0)  -->
<svg version="1.1" id="Layer_1" fill="#31344b" xmlns="http://www.w3.org/2000/svg" xmlns:xlink="http://www.w3.org/1999/xlink" x="0px" y="0px"
	 viewBox="0 0 512 268.3" style="enable-background:new 0 0 512 268.3;" xml:space="preserve">
<path d="M448.6,120.5H65.7c-0.9-0.2-1.8-0.2-2.7-0.2c-18.2,0-33-14.9-33-33.2s15-33.2,33.4-33.2h329.1c4.4,13.4,17,23.2,31.9,23.2
	h28c15,0,27.7-9.9,32-23.4h11c8.3,0,15-6.7,15-15c0-8.3-6.7-15-15-15h-11c-4.3-13.7-17-23.6-32-23.6h-28
	c-15.1,0-27.9,10.1-32.1,23.8H63.4C28.5,23.8,0,52.2,0,87c0,33.8,26.6,61.5,59.8,63.1c1,0.2,2,0.3,3.1,0.3h385.7
	c18.4,0,33.4,15,33.4,33.3c0,18.4-14.9,33.3-33.1,33.3H118.9c-3.5-14.8-16.8-25.9-32.7-25.9h-28c-15,0-27.7,9.9-32,23.4h-11
	c-8.3,0-15,6.7-15,15c0,8.3,6.7,15,15,15h11c4.3,13.6,17,23.6,32,23.6h28c14.1,0,26.2-8.8,31.2-21.1h331.5
	c34.8,0,63.1-28.4,63.1-63.3S483.6,120.5,448.6,120.5z M452.4,30c2,0,3.6,1.6,3.6,3.6v9.9c0,2-1.6,3.6-3.6,3.6h-28
	c-2,0-3.6-1.6-3.6-3.6v-9.9c0-2,1.6-3.6,3.6-3.6H452.4z M58.3,238.3c-2,0-3.6-1.6-3.6-3.6v-9.9c0-2,1.6-3.6,3.6-3.6h28
	c2,0,3.6,1.6,3.6,3.6v9.9c0,2-1.6,3.6-3.6,3.6H58.3z"/>
</svg>
