<?xml version="1.0" encoding="utf-8"?>
<!-- Generator: Adobe Illustrator 22.0.1, SVG Export Plug-In . SVG Version: 6.00 Build 0)  -->
<svg version="1.1" id="Capa_1" fill="#31344b" xmlns="http://www.w3.org/2000/svg" xmlns:xlink="http://www.w3.org/1999/xlink" x="0px" y="0px"
	 viewBox="0 0 496.9 496.9" style="enable-background:new 0 0 496.9 496.9;" xml:space="preserve">
<g>
	<g>
		<g>
			<path d="M475.3,106.9l-12-3.8c-3-0.8-6-1.5-9.8-1.5c-13.6,0-25.6,9-30.1,21.8l-6.8,20.3v-15.1V128c0-2.3-1.5-4.5-3-6L290.1,2.3
				c-1.5-1.5-3.8-2.3-5.3-2.3H43.1c-4.5,0-7.5,3-7.5,7.5v23.3H7.7c-4.5,0-7.5,3-7.5,7.5v451c0,4.5,3,7.5,7.5,7.5h365.9
				c4.5,0,7.5-3,7.5-7.5v-23.3H409c4.5,0,7.5-3,7.5-7.5V356.9l21.1-28.6l0.8-2.3l56.5-180C500.9,129.5,491.9,112.2,475.3,106.9z
				 M292.3,25.6l98.6,94.9h-98.6V25.6z M366.1,481.9H15.3v-436h20.3v412.6c0,4.5,3,7.5,7.5,7.5h323L366.1,481.9L366.1,481.9z
				 M402.3,451h-0.8H50.6v-436h226.6V128c0,4.5,3,7.5,7.5,7.5h117.5V192l-35.4,111.4v2.3l1.5,95.6c0,3,2.3,6,5.3,6.8
				c3,0.8,6.8,0,8.3-3l20.3-27.1L402.3,451L402.3,451z M382.7,378l-1.5-62.5l37.6,12L382.7,378z M481.3,141.6L427.1,314l-43.7-14.3
				L437.7,128c3-8.3,12-13.6,20.3-10.5l12,3.8C479.1,123.5,484.3,133.3,481.3,141.6z"/>
			<path d="M101.8,135.5h108.4c4.5,0,7.5-3,7.5-7.5V51.2c0-4.5-3-7.5-7.5-7.5H101.8c-4.5,0-7.5,3-7.5,7.5V128
				C94.3,131.8,98.1,135.5,101.8,135.5z M109.4,58.7h93.4v61.7h-93.4V58.7z"/>
			<path d="M86.8,206.3h228.9c4.5,0,7.5-3,7.5-7.5c0-4.5-3-7.5-7.5-7.5H86.8c-4.5,0-7.5,3-7.5,7.5C79.3,203.3,82.3,206.3,86.8,206.3
				z"/>
			<path d="M86.8,261.3h228.9c4.5,0,7.5-3,7.5-7.5s-3-7.5-7.5-7.5H86.8c-4.5,0-7.5,3-7.5,7.5S82.3,261.3,86.8,261.3z"/>
			<path d="M86.8,316.2h228.9c4.5,0,7.5-3,7.5-7.5s-3-7.5-7.5-7.5H86.8c-4.5,0-7.5,3-7.5,7.5S82.3,316.2,86.8,316.2z"/>
			<path d="M322.5,363.7c0-4.5-3-7.5-7.5-7.5H86.8c-4.5,0-7.5,3-7.5,7.5s3,7.5,7.5,7.5h228.9C319.4,371.2,322.5,367.4,322.5,363.7z"
				/>
			<path d="M347.3,411.1H233.6c-4.5,0-7.5,3-7.5,7.5s3,7.5,7.5,7.5h112.9c4.5,0,7.5-3,7.5-7.5S351.1,411.1,347.3,411.1z"/>
		</g>
	</g>
</g>
</svg>
