<?xml version="1.0" encoding="utf-8"?>
<!-- Generator: Adobe Illustrator 22.0.1, SVG Export Plug-In . SVG Version: 6.00 Build 0)  -->
<svg version="1.1" id="Capa_1" fill="#fff" xmlns="http://www.w3.org/2000/svg" xmlns:xlink="http://www.w3.org/1999/xlink" x="0px" y="0px"
	 viewBox="0 0 442.5 339.2" style="enable-background:new 0 0 442.5 339.2;" xml:space="preserve">
<g>
	<path d="M434.5,46.8L395.7,8c-5.3-5.3-11.8-8-19.4-8c-7.6,0-14.1,2.7-19.4,8L169.6,195.6l-83.9-84.2c-5.3-5.3-11.8-8-19.4-8
		c-7.6,0-14.1,2.7-19.4,8L8,150.2c-5.3,5.3-8,11.8-8,19.4c0,7.6,2.7,14.1,8,19.4l103.4,103.3l38.8,38.8c5.3,5.3,11.8,8,19.4,8
		c7.6,0,14.1-2.7,19.4-8l38.8-38.8L434.5,85.7c5.3-5.3,8-11.8,8-19.4C442.5,58.6,439.9,52.2,434.5,46.8z"/>
</g>
</svg>
