<?xml version="1.0" encoding="utf-8"?>
<!-- Generator: Adobe Illustrator 22.0.1, SVG Export Plug-In . SVG Version: 6.00 Build 0)  -->
<svg version="1.1" id="Capa_1" fill="#fff" xmlns="http://www.w3.org/2000/svg" xmlns:xlink="http://www.w3.org/1999/xlink" x="0px" y="0px"
	 viewBox="0 0 509.3 510.1" style="enable-background:new 0 0 509.3 510.1;" xml:space="preserve">
<path d="M476.7,459v-32.7h-24.5v-40.9h-16.4V191h16.4v-40.9h49.1V74.4h-63L254.7,0L73,74.4H8.2V150h49.1v40.9h16.4v194.4H57.4v40.9
	H32.9v32.7H0v51.2h509.3V459H476.7z M287.6,150.1v-1h16.3l0,0v1H352V191h16.4v194.4H352v40.9h-38.1V275.4l0,0v-18.3H195.6l0,0h-0.1
	v169.1h-37.9v-40.9h-16.4V191h16.4v-41h48.1v-1h16.4v1.1H287.6z M433.7,403.8v22.5h-63.5v-22.5H433.7z M386.7,385.4V191h30.7v194.4
	H386.7z M370.2,172.6v-22.5h63.5v22.5H370.2z M264,426.2V292.6h-18.4v133.6h-31.7V275.4h81.6v150.8h-7.9v-0.1H264V426.2z M139.2,150
	v22.5H75.7V150H139.2z M122.7,191v194.4H92.1V191H122.7z M139.2,403.7v22.5H75.7v-22.5H139.2z M434.6,92.8h48.3v38.9H26.7V92.8h49.9
	l178.2-72.9L434.6,92.8z M51.2,459v-14.4h407.2V459H51.2z M18.5,491.7v-14.4h472.6v14.4H18.5z"/>
</svg>
