<?xml version="1.0" encoding="utf-8"?>
<!-- Generator: Adobe Illustrator 22.0.1, SVG Export Plug-In . SVG Version: 6.00 Build 0)  -->
<svg version="1.1" id="Layer_1" fill="#fff" xmlns="http://www.w3.org/2000/svg" xmlns:xlink="http://www.w3.org/1999/xlink" x="0px" y="0px"
	 viewBox="0 0 512 512" style="enable-background:new 0 0 512 512;" xml:space="preserve">
<g>
	<path d="M163.9,66.5l-73.7-64c-3.8-3.3-9.4-3.3-13.1,0l-73.7,64c-3.1,2.7-4.3,7.1-2.8,11C2.1,81.4,5.8,84,10,84h11.3l17.9,76h-3.5
		c-5.5,0-10,4.5-10,10s4.5,10,10,10h17.9v150v20v46h-1.8c-4.6,0-8.7,3.2-9.7,7.7l-22.7,96c-0.7,3,0,6.1,1.9,8.5
		c1.9,2.4,4.8,3.8,7.8,3.8H138c3.1,0,5.9-1.4,7.8-3.8c1.9-2.4,2.6-5.5,1.9-8.5l-22.7-96c-1.1-4.5-5.1-7.7-9.7-7.7h-1.8V180h17.9
		c5.5,0,10-4.5,10-10s-4.5-10-10-10h-3.5L146,84h11.3c4.2,0,7.9-2.6,9.4-6.5S167,69.2,163.9,66.5z M73.6,350v-20V180h20v216h-20V350
		z M125.5,492H41.9l17.9-76h47.7L125.5,492z M107.5,160H59.8L41.9,84h83.6L107.5,160z M36.8,64l46.9-40.8L130.6,64H36.8z"/>
	<path d="M502,346.1c5.5,0,10-4.5,10-10v-80c0-5.5-4.5-10-10-10H302h-60h-60c-5.5,0-10,4.5-10,10v80c0,5.5,4.5,10,10,10h39.4v44.1
		H182c-5.5,0-10,4.5-10,10V448c0,5.5,4.5,10,10,10h39.4v44c0,5.5,4.5,10,10,10s10-4.5,10-10v-44h201.1v44c0,5.5,4.5,10,10,10
		s10-4.5,10-10v-44H502c5.5,0,10-4.5,10-10v-47.8c0-5.5-4.5-10-10-10h-39.4v-44.1H502z M492,410.2V438H192v-27.8H492z M442.5,390.2
		H241.4v-44.1h201.1V390.2z M192,326.1v-60h50h60h190v60H192z"/>
</g>
</svg>
