<?xml version="1.0" encoding="utf-8"?>
<!-- Generator: Adobe Illustrator 22.0.1, SVG Export Plug-In . SVG Version: 6.00 Build 0)  -->
<svg version="1.1" id="Layer_1" fill="#fff" xmlns="http://www.w3.org/2000/svg" xmlns:xlink="http://www.w3.org/1999/xlink" x="0px" y="0px"
	 viewBox="0 0 514.9 514.9" style="enable-background:new 0 0 514.9 514.9;" xml:space="preserve">
<g>
	<path d="M505,494.9h-41.2V258.6l5.1,4.8c5.1,4.9,11.8,7.6,18.9,7.6c7.3,0,14.1-2.8,19.2-7.9c5.1-5.2,8-12,7.9-19.3
		c0-7.4-2.9-14.1-8.3-19.5l-68.2-62.5V61.2c0-5.5-4.5-10-10-10h-51.2c-5.5,0-10,4.5-10,10v35.4l-102.7-94c-3.9-3.5-9.7-3.5-13.5,0
		L8,224.4c-5.2,5.1-8,12-8,19.2c0,7.3,2.8,14.1,8,19.3c10.5,10.5,27.5,10.6,38,0.4l5.2-4.9v236.5H10c-5.5,0-10,4.5-10,10
		s4.5,10,10,10h494.9c5.5,0,10-4.5,10-10C515,499.4,510.5,494.9,505,494.9z M387.3,115V71.3h31.1v72.2L387.3,115z M71.3,239.8
		L257.5,66.4l186.2,173.5v255H71.3V239.8z M492.8,248.9c-2.7,2.7-7.2,2.8-10,0l-22.1-20.6l-0.1-0.1L264.3,45.4
		c-1.9-1.7-4.3-2.7-6.8-2.7c-2.5,0-5,1-6.8,2.7L32.1,248.8l0,0c-2.8,2.7-7.2,2.7-10-0.1c-1.3-1.4-2.1-3.1-2.1-5
		c0-1.8,0.7-3.6,1.8-4.7L257.7,23.6l112.5,103c0.1,0.1,0.1,0.1,0.2,0.2l51.2,46.9c0.1,0.1,0.1,0.1,0.2,0.2l71,65
		c1.3,1.4,2.1,3.1,2.1,5C494.9,245.8,494.2,247.6,492.8,248.9z"/>
	<path d="M342.8,221.9H172.2c-5.5,0-10,4.5-10,10v170.7c0,5.5,4.5,10,10,10h170.7c5.5,0,10-4.5,10-10V231.9
		C352.9,226.4,348.4,221.9,342.8,221.9z M182.2,307.2v-65.3h65.3v65.3H182.2z M182.2,392.5v-65.3h65.3v65.3H182.2z M267.5,307.2
		v-65.3h65.3v65.3H267.5z M267.5,392.5v-65.3h65.3v65.3H267.5z"/>
</g>
</svg>
