<?xml version="1.0" encoding="utf-8"?>
<!-- Generator: Adobe Illustrator 22.0.1, SVG Export Plug-In . SVG Version: 6.00 Build 0)  -->
<svg version="1.1" id="Capa_1" fill="#fff" xmlns="http://www.w3.org/2000/svg" xmlns:xlink="http://www.w3.org/1999/xlink" x="0px" y="0px"
	 viewBox="0 0 433.4 384.2" style="enable-background:new 0 0 433.4 384.2;" xml:space="preserve">
<g>
	<path d="M144.6,0.5L143.2,0l-3.9,11.3l41.5,14.3v147.2h-9.5v-11.1h-12v11.1h-13.2v-11.1h-12v11.1H121v-11.1h-12v72h71.9v79h-22.3
		V331h-18.3v18.3H122v22.6H40.3V233.1h3c3.3,0,6-2.7,6-6c0-2.5-1.6-4.7-3.8-5.6c6.2-3.8,10.2-10.6,10.2-18.2
		c0-11.8-9.6-21.4-21.4-21.4s-21.4,9.6-21.4,21.4c0,7.6,4,14.4,10.2,18.2c-2.2,0.9-3.8,3-3.8,5.6c0,3.3,2.7,6,6,6h3v139.1H0v12
		h402.6V102.4l26.8,9.3l4-11.3L144.6,0.5z M180.8,184.9v21.3h-9.5v-21.3H180.8z M121,221.9v-3.6h59.9v3.6H121z M121,206.2v-21.3
		h13.2v21.3H121z M146.1,206.2v-21.3h13.2v21.3H146.1z M170.5,343.2v-18.3h10.3v47.2h-46.9v-10.6h18.3v-18.3L170.5,343.2
		L170.5,343.2z M192.8,341V29.9l197.8,68.5V341H192.8z M192.8,372.1V353h197.8v19.1H192.8z M24.9,203.3c0-5.2,4.2-9.4,9.4-9.4
		c5.1,0,9.3,4.2,9.3,9.4s-4.2,9.4-9.4,9.4C29.1,212.7,24.9,208.5,24.9,203.3z"/>
	<path d="M311,193.5h53.8v-80.1H311V193.5z M352.7,143.8v37.6h-29.8v-37.6H352.7z M352.8,125.4v6.4H323v-6.4H352.8z"/>
	<path d="M218.8,193.5h53.8v-80.1h-53.8V193.5z M260.5,143.8v37.6h-29.8v-37.6H260.5z M260.6,125.4v6.4h-29.8v-6.4H260.6z"/>
	<path d="M218.7,96.3h53.8V71.4v-2.6l-53.8-18.6V96.3z M260.6,77.4v6.9h-29.8V67.1L260.6,77.4z"/>
	<path d="M311,302.7h53.8v-80.1H311V302.7z M352.7,253.1v37.6h-29.8v-37.6H352.7z M352.8,234.6v6.4H323v-6.4H352.8z"/>
	<path d="M218.8,302.7h53.8v-80.1h-53.8V302.7z M260.5,253.1v37.6h-29.8v-37.6H260.5z M260.6,234.6v6.4h-29.8v-6.4H260.6z"/>
</g>
</svg>
