<?xml version="1.0" encoding="utf-8"?>
<!-- Generator: Adobe Illustrator 22.0.1, SVG Export Plug-In . SVG Version: 6.00 Build 0)  -->
<svg version="1.1" id="Capa_1" fill="#fff" xmlns="http://www.w3.org/2000/svg" xmlns:xlink="http://www.w3.org/1999/xlink" x="0px" y="0px"
	 viewBox="0 0 512.1 426.6" style="enable-background:new 0 0 512.1 426.6;" xml:space="preserve">
<g>
	<path d="M503.6,221.8h-18.2L460.9,42V8.5c0-4.7-3.8-8.5-8.5-8.5h-51.2c-4.7,0-8.5,3.8-8.5,8.5v33.6L368,221.8h-9.6V119.4
		c0-3.1-1.7-5.9-4.3-7.4c-2.7-1.5-6-1.5-8.6,0.1l-72.4,43.4v-36.1c0-3.1-1.7-5.9-4.3-7.4c-2.7-1.5-6-1.5-8.6,0.1l-72.4,43.4v-36.1
		c0-3.1-1.7-5.9-4.3-7.4c-2.7-1.5-6-1.5-8.6,0.1l-72.5,45.5v-38.2c0-3.1-1.7-5.9-4.3-7.4c-2.7-1.5-6-1.5-8.6,0.1L4.1,163.3
		c-0.3,0.2-0.5,0.4-0.7,0.7c-0.5,0.3-0.9,0.7-1.3,1.2c-0.3,0.4-0.6,0.9-0.9,1.3c-0.3,0.5-0.5,0.9-0.7,1.4c-0.2,0.6-0.3,1.1-0.3,1.7
		c-0.1,0.3-0.2,0.7-0.2,1v238.9c0,4.5,1.8,8.9,5,12.1s7.5,5,12.1,5H495c9.4,0,17.1-7.6,17.1-17.1V230.3
		C512.1,225.6,508.3,221.8,503.6,221.8z M409.6,17h34.1v17.1h-34.1V17z M408.5,51.1h36.3l23.3,170.7h-82.8L408.5,51.1z M358.4,281.5
		h34.1c4.7,0,8.5-3.8,8.5-8.5s-3.8-8.5-8.5-8.5h-34.1v-25.6h136.5v136.5h-34.1v-42.7c0-9.4-7.6-17.1-17.1-17.1h-34.1
		c-9.4,0-17.1,7.6-17.1,17.1v42.7h-34.1L358.4,281.5z M443.7,332.7v42.7h-34.1v-42.7H443.7z M341.3,134.5v27.6h-46L341.3,134.5z
		 M256,134.5v27.6h-46L256,134.5z M170.7,134.5v27.6h-43.6L170.7,134.5z M85.3,134.5v27.6h-46L85.3,134.5z M17.1,221.8h59.7
		c4.7,0,8.5-3.8,8.5-8.5s-3.8-8.5-8.5-8.5H17.1v-25.6h324.2v196.2h-17.1V255.9c0-9.4-7.6-17.1-17.1-17.1h-68.3
		c-9.4,0-17.1,7.6-17.1,17.1v119.5H17.1V221.8z M281.6,341.3h-42.7v-17.1h42.7c4.7,0,8.5-3.8,8.5-8.5s-3.8-8.5-8.5-8.5h-42.7v-17.1
		h42.7c4.7,0,8.5-3.8,8.5-8.5s-3.8-8.5-8.5-8.5h-42.7V256h68.3v119.5h-68.3v-17.2h42.7c4.7,0,8.5-3.8,8.5-8.5
		S286.3,341.3,281.6,341.3z M495,409.5L495,409.5H17.1v-17.1H495V409.5z"/>
	<path d="M204.8,204.8h-93.9c-4.7,0-8.5,3.8-8.5,8.5s3.8,8.5,8.5,8.5h93.9c4.7,0,8.5-3.8,8.5-8.5S209.5,204.8,204.8,204.8z"/>
	<path d="M93.9,264.4H51.2c-9.4,0.1-17.1,7.7-17.1,17.1v34.1c0,9.4,7.6,17.1,17.1,17.1h42.7c9.4,0,17.1-7.6,17.1-17.1v-34.1
		C111,272.1,103.4,264.4,93.9,264.4z M93.9,315.7H51.2v-34.1h42.7V315.7z"/>
	<path d="M187.7,264.5H145c-9.4,0-17.1,7.6-17.1,17.1v34.1c0,9.4,7.6,17.1,17.1,17.1h42.7c9.4,0,17.1-7.6,17.1-17.1v-34.1
		C204.8,272.1,197.2,264.5,187.7,264.5z M187.8,315.7h-42.7v-34.1h42.7V315.7z"/>
	<path d="M426.7,281.5h42.7c4.7,0,8.5-3.8,8.5-8.5s-3.8-8.5-8.5-8.5h-42.7c-4.7,0-8.5,3.8-8.5,8.5S422,281.5,426.7,281.5z"/>
</g>
</svg>
