<?xml version="1.0" encoding="utf-8"?>
<!-- Generator: Adobe Illustrator 22.0.1, SVG Export Plug-In . SVG Version: 6.00 Build 0)  -->
<svg version="1.1" id="Capa_1" fill="#fff" xmlns="http://www.w3.org/2000/svg" xmlns:xlink="http://www.w3.org/1999/xlink" x="0px" y="0px"
	 viewBox="0 0 512 351.6" style="enable-background:new 0 0 512 351.6;" xml:space="preserve">
<g>
	<path d="M504.5,336.5H504V153.3c4.9-4.3,8-10.6,8-17.7c0-11.5-8.3-21.1-19.3-23.1l-27.3-40.9c4-4.2,6.4-9.9,6.4-16.1
		c0-13-10.6-23.5-23.5-23.5H309.2L269.5,4.2c-8.1-5.6-18.9-5.6-27,0l-80.2,56.1c-10.6,7.4-13.2,22.1-5.8,32.8
		c3,4.3,7.2,7.3,11.8,8.8v10.3H63.6c-13,0-23.5,10.6-23.5,23.5c0,6.2,2.4,11.9,6.4,16.1l-27.3,40.9C8.3,194.7,0,204.3,0,215.8
		c0,7,3.1,13.4,8,17.7v103.1H7.5c-4.1,0-7.5,3.4-7.5,7.5c0,4.1,3.4,7.5,7.5,7.5h497c4.1,0,7.5-3.4,7.5-7.5
		C512,339.9,508.6,336.5,504.5,336.5z M474.5,112h-2.2h-7.8H343.7v-10.3c4.7-1.6,8.9-4.6,11.8-8.8c3-4.3,4.3-9.2,4.2-14h88.7
		c1.3,0,2.6-0.1,3.8-0.3L474.5,112z M448.4,46.9c4.7,0,8.5,3.8,8.5,8.5c0,4.7-3.8,8.5-8.5,8.5h-94.5c-1.2-1.4-2.6-2.7-4.2-3.8
		l-19-13.3C330.7,46.9,448.4,46.9,448.4,46.9z M304.1,144.1H272c-4.1,0-7.5,3.4-7.5,7.5v40.6h-17.1v-40.6c0-4.1-3.4-7.5-7.5-7.5
		h-32.1c-4.1,0-7.5,3.4-7.5,7.5v40.6h-17.1v-90.4c2.1-0.7,4.1-1.7,6-3l66.7-46.7l66.7,46.7c1.9,1.3,3.9,2.3,6,3v90.5
		c-0.2,0-0.3,0-0.5,0h-16.5v-40.6C311.6,147.5,308.2,144.1,304.1,144.1z M296.6,159.1v33.1h-17.1v-33.1H296.6z M232.5,159.1v33.1
		h-17.1v-33.1H232.5z M63.6,127.1h104.7v17.1H63.6c-4.7,0-8.5-3.8-8.5-8.5S58.9,127.1,63.6,127.1z M59.8,158.9
		c1.2,0.2,2.5,0.3,3.8,0.3h104.7v33.1H87.7H37.5L59.8,158.9z M136.3,336.5H55.1v-65.2h81.2V336.5z M168.3,336.5h-17.1v-72.7
		c0-4.1-3.4-7.5-7.5-7.5H47.6c-4.1,0-7.5,3.4-7.5,7.5v72.7H23v-97.2c0.2,0,0.3,0,0.5,0h144.8V336.5z M272.5,336.5h-33.1v-65.2h33.1
		V336.5z M328.7,336.5h-41.1v-72.7c0-4.1-3.4-7.5-7.5-7.5H232c-4.1,0-7.5,3.4-7.5,7.5v72.7h-41.1v-97.2h144.8c0.2,0,0.3,0,0.5,0
		V336.5z M328.1,224.3H23.5c-4.7,0-8.5-3.8-8.5-8.5s3.8-8.5,8.5-8.5h64.2h97.9h142.6c4.7,0,8.5,3.8,8.5,8.5S332.8,224.3,328.1,224.3
		z M336.1,88c-1.8,0-3.4-0.5-4.9-1.5l-71-49.7c-1.3-0.9-2.8-1.4-4.3-1.4s-3,0.5-4.3,1.4l-71,49.7c-3.9,2.7-9.2,1.8-11.9-2.1
		c-2.7-3.9-1.8-9.2,2.1-11.9L251,16.4c2.9-2,6.9-2,9.8,0L341,72.5c3.9,2.7,4.8,8,2.1,11.9C341.6,86.7,338.9,88,336.1,88z M489,336.5
		H343.7V233.4c4.9-4.3,8-10.6,8-17.7c0-7.1-3.1-13.4-8-17.7v-39h144.8c0.2,0,0.3,0,0.5,0V336.5z M488.5,144.1H343.7V127h120.8h7.8
		h16.2c4.7,0,8.5,3.8,8.5,8.5C497,140.3,493.2,144.1,488.5,144.1z"/>
	<path d="M256,80c-13,0-23.5,10.6-23.5,23.5c0,13,10.6,23.5,23.5,23.5c13,0,23.5-10.6,23.5-23.5S269,80,256,80z M256,112.1
		c-4.7,0-8.5-3.8-8.5-8.5c0-4.7,3.8-8.5,8.5-8.5s8.5,3.8,8.5,8.5C264.5,108.3,260.7,112.1,256,112.1z"/>
	<path d="M400.3,256.4h-32.1c-4.1,0-7.5,3.4-7.5,7.5V312c0,4.1,3.4,7.5,7.5,7.5h32.1c4.1,0,7.5-3.4,7.5-7.5v-48.1
		C407.8,259.7,404.4,256.4,400.3,256.4z M392.8,304.5h-17.1v-33.1h17.1V304.5z"/>
	<path d="M464.4,256.4h-32.1c-4.1,0-7.5,3.4-7.5,7.5V312c0,4.1,3.4,7.5,7.5,7.5h32.1c4.1,0,7.5-3.4,7.5-7.5v-48.1
		C471.9,259.7,468.6,256.4,464.4,256.4z M456.9,304.5h-17.1v-33.1h17.1V304.5z"/>
	<path d="M400.3,176.2h-32.1c-4.1,0-7.5,3.4-7.5,7.5v48.1c0,4.1,3.4,7.5,7.5,7.5h32.1c4.1,0,7.5-3.4,7.5-7.5v-48.1
		C407.8,179.6,404.4,176.2,400.3,176.2z M392.8,224.3h-17.1v-33.1h17.1V224.3z"/>
	<path d="M464.4,176.2h-32.1c-4.1,0-7.5,3.4-7.5,7.5v48.1c0,4.1,3.4,7.5,7.5,7.5h32.1c4.1,0,7.5-3.4,7.5-7.5v-48.1
		C471.9,179.6,468.6,176.2,464.4,176.2z M456.9,224.3h-17.1v-33.1h17.1V224.3z"/>
</g>
</svg>
