<?xml version="1.0" encoding="utf-8"?>
<!-- Generator: Adobe Illustrator 22.0.1, SVG Export Plug-In . SVG Version: 6.00 Build 0)  -->
<svg version="1.1" id="Layer_1" fill="#fff" xmlns="http://www.w3.org/2000/svg" xmlns:xlink="http://www.w3.org/1999/xlink" x="0px" y="0px"
	 viewBox="0 0 503.6 503.6" style="enable-background:new 0 0 503.6 503.6;" xml:space="preserve">
<g transform="translate(1 1)">
	<g>
		<g>
			<path d="M494.2,452.2H469V7.4c0-5-3.4-8.4-8.4-8.4H41c-5,0-8.4,3.4-8.4,8.4v444.9H7.4c-5,0-8.4,3.4-8.4,8.4v33.6
				c0,5,3.4,8.4,8.4,8.4h486.8c5,0,8.4-3.4,8.4-8.4v-33.6C502.6,455.6,499.2,452.2,494.2,452.2z M49.4,15.8h402.9v436.5H326.3v-92.3
				c0-5-3.4-8.4-8.4-8.4h-67.1h-67.1c-5,0-8.4,3.4-8.4,8.4v92.3H49.4V15.8z M192,452.2v-83.9h50.4v83.9H192z M259.2,368.3h50.4v83.9
				h-50.4V368.3z M485.8,485.8h-470V469H41h142.7h67.1H318h142.7h25.2L485.8,485.8L485.8,485.8z"/>
			<path d="M158.5,41H91.3c-5,0-8.4,3.4-8.4,8.4v50.4c0,5,3.4,8.4,8.4,8.4h67.1c5,0,8.4-3.4,8.4-8.4V49.4
				C166.9,44.3,163.5,41,158.5,41z M150.1,91.3H99.7V57.8h50.4V91.3z"/>
			<path d="M158.5,133.3H91.3c-5,0-8.4,3.4-8.4,8.4V192c0,5,3.4,8.4,8.4,8.4h67.1c5,0,8.4-3.4,8.4-8.4v-50.4
				C166.9,136.7,163.5,133.3,158.5,133.3z M150.1,183.7H99.7v-33.6h50.4V183.7z"/>
			<path d="M217.2,200.4h67.1c5,0,8.4-3.4,8.4-8.4v-50.4c0-5-3.4-8.4-8.4-8.4h-67.1c-5,0-8.4,3.4-8.4,8.4V192
				C208.8,197.1,212.2,200.4,217.2,200.4z M225.6,150.1H276v33.6h-50.4L225.6,150.1L225.6,150.1z"/>
			<path d="M343.1,200.4h67.1c5,0,8.4-3.4,8.4-8.4v-50.4c0-5-3.4-8.4-8.4-8.4h-67.1c-5,0-8.4,3.4-8.4,8.4V192
				C334.7,197.1,338.1,200.4,343.1,200.4z M351.5,150.1h50.4v33.6h-50.4V150.1z"/>
			<path d="M217.2,292.8h67.1c5,0,8.4-3.4,8.4-8.4V234c0-5-3.4-8.4-8.4-8.4h-67.1c-5,0-8.4,3.4-8.4,8.4v50.4
				C208.8,289.4,212.2,292.8,217.2,292.8z M225.6,242.4H276V276h-50.4L225.6,242.4L225.6,242.4z"/>
			<path d="M343.1,292.8h67.1c5,0,8.4-3.4,8.4-8.4V234c0-5-3.4-8.4-8.4-8.4h-67.1c-5,0-8.4,3.4-8.4,8.4v50.4
				C334.7,289.4,338.1,292.8,343.1,292.8z M351.5,242.4h50.4V276h-50.4V242.4z"/>
			<path d="M158.5,225.6H91.3c-5,0-8.4,3.4-8.4,8.4v50.4c0,5,3.4,8.4,8.4,8.4h67.1c5,0,8.4-3.4,8.4-8.4V234
				C166.9,229,163.5,225.6,158.5,225.6z M150.1,276H99.7v-33.6h50.4V276z"/>
			<path d="M217.2,108.1h67.1c5,0,8.4-3.4,8.4-8.4V49.4c0-5-3.4-8.4-8.4-8.4h-67.1c-5,0-8.4,3.4-8.4,8.4v50.4
				C208.8,104.8,212.2,108.1,217.2,108.1z M225.6,57.8H276v33.6h-50.4L225.6,57.8L225.6,57.8z"/>
			<path d="M343.1,108.1h67.1c5,0,8.4-3.4,8.4-8.4V49.4c0-5-3.4-8.4-8.4-8.4h-67.1c-5,0-8.4,3.4-8.4,8.4v50.4
				C334.7,104.8,338.1,108.1,343.1,108.1z M351.5,57.8h50.4v33.6h-50.4V57.8z"/>
			<path d="M200.4,334.7h100.7c5,0,8.4-3.4,8.4-8.4s-3.4-8.4-8.4-8.4H200.4c-5,0-8.4,3.4-8.4,8.4C192,331.4,195.4,334.7,200.4,334.7
				z"/>
		</g>
	</g>
</g>
</svg>
