<?xml version="1.0" encoding="utf-8"?>
<!-- Generator: Adobe Illustrator 22.0.1, SVG Export Plug-In . SVG Version: 6.00 Build 0)  -->
<svg version="1.1" id="Layer_1" fill="#fff" xmlns="http://www.w3.org/2000/svg" xmlns:xlink="http://www.w3.org/1999/xlink" x="0px" y="0px"
	 viewBox="0 0 621.7 604.3" style="enable-background:new 0 0 621.7 604.3;" xml:space="preserve">
<path d="M610.7,182.6h-49V79.5l55.1-36.7c3-2.1,4.8-5.5,4.8-9.1v-2.6c0-11.4-6.3-21.9-16.3-27.4c-10.2-5.4-22.4-4.8-31.8,1.6
	L4.8,384.4c-3,2.1-4.8,5.5-4.8,9.1v2.6c0,11.4,6.3,21.9,16.3,27.4c10.2,5.4,22.4,4.8,31.8-1.6l11.8-7.9v68.4H11c-6.1,0-11,4.9-11,11
	v99.9c0,6.1,4.9,11,11,11h599.7c6.1,0,11-4.9,11-11V193.6C621.7,187.5,616.8,182.6,610.7,182.6z M35.9,403.7c-2.7,1.9-6.3,2-9.3,0.4
	c-2-1-3.5-2.8-4.3-5L585.7,23.5c2.7-1.9,6.3-2,9.3-0.4c2,1,3.5,2.8,4.3,5L35.9,403.7L35.9,403.7z M231.9,382.6v-83.2l6.3-4.1
	l1.7-1.2v88.4h-8V382.6z M381.8,282.6v-83.1l3.7-2.4l4.3-2.9v88.4H381.8z M359.7,282.6h-48.9c-6.1,0-11,4.9-11,11v89h-38V279.4
	l97.9-65.3V282.6z M171.9,493.4v-89h138.9c6.1,0,11-4.9,11-11v-89h138.9c6.1,0,11-4.9,11-11v-89h127.9v378H22v-78h138.9
	C167,504.4,171.9,499.5,171.9,493.4z M460.8,182.6c-6.1,0-11,4.9-11,11v89h-38V179.5l97.9-65.3v68.4h-47.9v-0.1h-1V182.6z
	 M160.9,382.5c-6.1,0-11,4.9-11,11v89h-38V379.4l97.9-65.3v68.4h-47.9v-0.1h-1V382.5z M531.7,182.6V99.5l8-5.4v88.4L531.7,182.6
	L531.7,182.6z M89.8,394.1v88.4h-8v-83L89.8,394.1z"/>
</svg>
