<?xml version="1.0" encoding="utf-8"?>
<!-- Generator: Adobe Illustrator 22.0.1, SVG Export Plug-In . SVG Version: 6.00 Build 0)  -->
<svg version="1.1" id="Layer_1" fill="#31344b" xmlns="http://www.w3.org/2000/svg" xmlns:xlink="http://www.w3.org/1999/xlink" x="0px" y="0px"
	 viewBox="0 0 496 496" style="enable-background:new 0 0 496 496;" xml:space="preserve">
<path d="M472,240h-57.5c0.9-2.5,1.5-5.2,1.5-8V24c0-13.2-10.8-24-24-24H104C90.8,0,80,10.8,80,24v208c0,2.8,0.6,5.5,1.5,8H24
	c-13.2,0-24,10.8-24,24v208c0,13.2,10.8,24,24,24h448c13.2,0,24-10.8,24-24V264C496,250.8,485.2,240,472,240z M288,16v32h-16V32h-16
	v16h-16V32h-16v16h-16V16H288z M96,232V24c0-4.4,3.6-8,8-8h88v48h112V16h88c4.4,0,8,3.6,8,8v208c0,4.4-3.6,8-8,8H104
	C99.6,240,96,236.4,96,232z M176,272v16h-16v-16h-16v16h-16v-32h80v32h-16v-16H176z M304,480H24c-4.4,0-8-3.6-8-8V264
	c0-4.4,3.6-8,8-8h88v48h112v-48h88c4.4,0,8,3.6,8,8v208c0,4.4-3.6,8-8,8H304z M480,472c0,4.4-3.6,8-8,8H334.5c0.9-2.5,1.5-5.2,1.5-8
	V264c0-2.8-0.6-5.5-1.5-8H472c4.4,0,8,3.6,8,8V472z"/>
<path d="M32,464h128v-80H32V464z M48,400h96v48H48V400z"/>
<path d="M64,416h64v16H64V416z"/>
<path d="M240,144H112v80h128V144z M224,208h-96v-48h96V208z"/>
<path d="M144,176h64v16h-64V176z"/>
<path d="M352,464h112v-80H352V464z M368,400h80v48h-80V400z"/>
<path d="M384,416h48v16h-48V416z"/>
</svg>
