<?xml version="1.0" encoding="utf-8"?>
<!-- Generator: Adobe Illustrator 22.0.1, SVG Export Plug-In . SVG Version: 6.00 Build 0)  -->
<svg version="1.1" id="Layer_1" fill="#2c2e47" xmlns="http://www.w3.org/2000/svg" xmlns:xlink="http://www.w3.org/1999/xlink" x="0px" y="0px"
	 viewBox="0 0 480 488" style="enable-background:new 0 0 480 488;" xml:space="preserve">
<path d="M479.9,191.7c0-0.8-0.2-1.6-0.5-2.4c-0.1-0.3-0.2-0.6-0.4-0.8c-0.3-0.6-0.6-1.1-1.1-1.6c-0.2-0.2-0.4-0.5-0.6-0.7
	c-0.1-0.1-0.2-0.3-0.4-0.4L245,1.7c-2.9-2.3-7-2.3-10,0L3,185.7c-0.1,0.1-0.2,0.3-0.4,0.4c-0.2,0.2-0.4,0.5-0.6,0.7
	c-0.4,0.5-0.8,1-1.1,1.6c-0.1,0.3-0.3,0.6-0.4,0.8c-0.3,0.8-0.4,1.6-0.5,2.4c0,0.1-0.1,0.2-0.1,0.4v288c0,4.4,3.6,8,8,8h32
	c4.4,0,8-3.6,8-8V232h384v248c0,4.4,3.6,8,8,8h32c4.4,0,8-3.6,8-8V192C480,191.9,479.9,191.8,479.9,191.7z M240,18.2L449,184H31
	L240,18.2z M32,472H16V200h16V472z M48,216v-16h384v16H48z M464,472h-16V200h16V472z"/>
<path d="M240,120c17.7,0,32-14.3,32-32c0-17.7-14.3-32-32-32s-32,14.3-32,32C208,105.7,222.3,120,240,120z M240,72
	c8.8,0,16,7.2,16,16s-7.2,16-16,16c-8.8,0-16-7.2-16-16S231.1,72,240,72z"/>
<path d="M200,128h80v16h-80V128z"/>
<path d="M200,152h80v16h-80V152z"/>
<path d="M414.8,291.9l-24-40c-1.4-2.4-4-3.9-6.9-3.9H104c-2.4,0-4.7,1.1-6.2,3l-32,40l0.1,0.1c-1.2,1.4-1.8,3.1-1.8,4.9v144
	c0,4.4,3.6,8,8,8h64v32c0,4.4,3.6,8,8,8h192c4.4,0,8-3.6,8-8v-32h64c4.4,0,8-3.6,8-8V296c0-1.4-0.5-2.8-1.3-4L414.8,291.9z
	 M393.8,288H248v-24h131.5L393.8,288z M232,344h16v32h-16V344z M160.6,328l19.2-24h127.6l14.4,24H160.6z M107.8,264H232v24H88.6
	L107.8,264z M80,432V304h79.4l-21.6,27l0.1,0.1c-1.2,1.4-1.8,3.1-1.9,4.9v96H80z M328,472H152V344h64v40c0,4.4,3.6,8,8,8h32
	c4.4,0,8-3.6,8-8v-40h64V472z M400,432h-56v-96c0-1.4-0.5-2.8-1.3-4l0.1-0.1L326.1,304H400V432z"/>
</svg>
