<?xml version="1.0" encoding="utf-8"?>
<!-- Generator: Adobe Illustrator 22.0.1, SVG Export Plug-In . SVG Version: 6.00 Build 0)  -->
<svg version="1.1" id="Layer_1" fill="#2c2e47" xmlns="http://www.w3.org/2000/svg" xmlns:xlink="http://www.w3.org/1999/xlink" x="0px" y="0px"
	 viewBox="0 0 512 508.8" style="enable-background:new 0 0 512 508.8;" xml:space="preserve">
<g>
	<g>
		<g>
			<path d="M326.5,224.2c4.6,0,8.4-3.7,8.4-8.4c0-4.6-3.7-8.4-8.4-8.4h-59.8c-4.6,0-8.4,3.7-8.4,8.4s3.7,8.4,8.4,8.4H326.5z"/>
			<path d="M64.4,108.9h262.2c4.6,0,8.4-3.7,8.4-8.4c0-4.6-3.7-8.4-8.4-8.4H64.4c-4.6,0-8.4,3.7-8.4,8.4
				C56,105.2,59.8,108.9,64.4,108.9z"/>
			<path d="M64.4,185.8h262.2c4.6,0,8.4-3.7,8.4-8.4s-3.7-8.4-8.4-8.4H64.4c-4.6,0-8.4,3.7-8.4,8.4C56,182,59.8,185.8,64.4,185.8z"
				/>
			<path d="M64.4,224.2h177.1c4.6,0,8.4-3.7,8.4-8.4s-3.7-8.4-8.4-8.4H64.4c-4.6,0-8.4,3.7-8.4,8.4S59.8,224.2,64.4,224.2z"/>
			<path d="M326.5,361.2h-85.1c-4.6,0-8.4,3.7-8.4,8.4s3.7,8.4,8.4,8.4h85.1c4.6,0,8.4-3.7,8.4-8.4
				C334.9,365,331.1,361.2,326.5,361.2z"/>
			<path d="M326.5,322.8H169.1c-4.6,0-8.4,3.7-8.4,8.4c0,4.6,3.7,8.4,8.4,8.4h157.4c4.6,0,8.4-3.7,8.4-8.4
				C334.9,326.5,331.1,322.8,326.5,322.8z"/>
			<path d="M171.8,254.3c0,4.6,3.7,8.4,8.4,8.4h146.4c4.6,0,8.4-3.7,8.4-8.4s-3.7-8.4-8.4-8.4H180.1
				C175.5,245.9,171.8,249.7,171.8,254.3z"/>
			<path d="M64.4,416.4h262.2c4.6,0,8.4-3.7,8.4-8.4c0-4.6-3.7-8.4-8.4-8.4H64.4c-4.6,0-8.4,3.7-8.4,8.4S59.8,416.4,64.4,416.4z"/>
			<path d="M64.4,262.6H156c4.6,0,8.4-3.7,8.4-8.4s-3.7-8.4-8.4-8.4H64.4c-4.6,0-8.4,3.7-8.4,8.4C56,258.9,59.8,262.6,64.4,262.6z"
				/>
			<path d="M503.6,0H129.4c-4.6,0-8.4,3.7-8.4,8.4v16.2H8.4c-4.6,0-8.4,3.7-8.4,8.4v467.6c0,4.6,3.7,8.4,8.4,8.4h374.2
				c4.6,0,8.4-3.7,8.4-8.4v-16.2h112.7c4.6,0,8.4-3.7,8.4-8.4V8.4C512,3.7,508.3,0,503.6,0z M374.2,492.1H16.7V41.2h357.5V492.1z
				 M495.3,467.6H390.9v-75.7h56.7c4.6,0,8.4-3.7,8.4-8.4s-3.7-8.4-8.4-8.4h-56.7v-21.7h56.7c4.6,0,8.4-3.7,8.4-8.4
				s-3.7-8.4-8.4-8.4h-56.7V315h56.7c4.6,0,8.4-3.7,8.4-8.4s-3.7-8.4-8.4-8.4h-56.7v-21.7h7.3c4.6,0,8.4-3.7,8.4-8.4
				c0-4.6-3.7-8.4-8.4-8.4h-7.3v-21.7h56.7c4.6,0,8.4-3.7,8.4-8.4s-3.7-8.4-8.4-8.4h-56.7v-21.7h56.7c4.6,0,8.4-3.7,8.4-8.4
				s-3.7-8.4-8.4-8.4h-56.7v-21.7h56.7c4.6,0,8.4-3.7,8.4-8.4s-3.7-8.4-8.4-8.4h-56.7v-21.7h56.7c4.6,0,8.4-3.7,8.4-8.4
				c0-4.6-3.7-8.4-8.4-8.4h-56.7V84.4h56.7c4.6,0,8.4-3.7,8.4-8.4s-3.7-8.4-8.4-8.4h-56.7V32.9c0-4.6-3.7-8.4-8.4-8.4H137.8v-7.8
				h357.5V467.6z"/>
			<path d="M64.4,454.8h164c4.6,0,8.4-3.7,8.4-8.4s-3.7-8.4-8.4-8.4h-164c-4.6,0-8.4,3.7-8.4,8.4C56,451.1,59.8,454.8,64.4,454.8z"
				/>
			<path d="M64.4,339.5h74c4.6,0,8.4-3.7,8.4-8.4c0-4.6-3.7-8.4-8.4-8.4h-74c-4.6,0-8.4,3.7-8.4,8.4C56,335.8,59.8,339.5,64.4,339.5
				z"/>
			<path d="M64.4,378h147.1c4.6,0,8.4-3.7,8.4-8.4s-3.7-8.4-8.4-8.4H64.4c-4.6,0-8.4,3.7-8.4,8.4S59.8,378,64.4,378z"/>
		</g>
	</g>
</g>
</svg>
