<?xml version="1.0" encoding="utf-8"?>
<!-- Generator: Adobe Illustrator 22.0.1, SVG Export Plug-In . SVG Version: 6.00 Build 0)  -->
<svg version="1.1" id="Capa_1" fill="#fff" xmlns="http://www.w3.org/2000/svg" xmlns:xlink="http://www.w3.org/1999/xlink" x="0px" y="0px"
	 viewBox="0 0 511.9 294.2" style="enable-background:new 0 0 511.9 294.2;" xml:space="preserve">
<g>
	<path d="M457.2,0h-37.5h-13.8H54.7C27.3,0,4.5,20.3,0.6,46.6C0.2,47.7,0,48.8,0,50v200.4c0,5.5,4.5,10,10,10h104.3
		c4.6,19.4,22,33.8,42.8,33.8s38.2-14.4,42.8-33.8h177c4.6,19.4,22,33.8,42.8,33.8s38.2-14.5,42.8-33.8h39.4c5.5,0,10-4.5,10-10
		V54.7C511.9,24.5,487.3,0,457.2,0z M19.9,60h24v36h-24V60z M157.1,274.2c-13.2,0-24-10.8-24-24s10.8-24,24-24s24,10.8,24,24
		S170.3,274.2,157.1,274.2z M355.9,143.1h-6.3c-5.5,0-10,4.5-10,10s4.5,10,10,10h6.3v77.3h-60V65.7h60V143.1z M419.7,274.2
		c-13.2,0-24-10.8-24-24s10.8-24,24-24s24,10.8,24,24S432.9,274.2,419.7,274.2z M491.9,240.4h-29.3c-4.5-19.5-22-34.2-42.9-34.2
		c-20.9,0-38.4,14.6-42.9,34.2h-0.9V55.7c0-5.5-4.5-10-10-10h-80c-5.5,0-10,4.5-10,10V136H60.2c-5.5,0-10,4.5-10,10s4.5,10,10,10
		h215.7v84.4H200c-4.5-19.6-22-34.2-42.9-34.2c-20.9,0-38.4,14.6-42.9,34.2H19.9V116h34c5.5,0,10-4.5,10-10V50c0-5.5-4.5-10-10-10
		H23.2c5.6-11.8,17.6-20,31.5-20h351.2h13.8h37.5c16,0,29.5,10.9,33.5,25.6h-84.8c-5.5,0-10,4.5-10,10v89.9c0,5.5,4.5,10,10,10h86
		V240.4z M491.9,135.5h-76V65.6h76V135.5z"/>
	<path d="M245.9,40h-56c-5.5,0-10,4.5-10,10v56c0,5.5,4.5,10,10,10h56c5.5,0,10-4.5,10-10V50C255.9,44.5,251.4,40,245.9,40z
		 M235.9,96h-36V60h36V96z"/>
	<path d="M149.9,40h-56c-5.5,0-10,4.5-10,10v56c0,5.5,4.5,10,10,10h56c5.5,0,10-4.5,10-10V50C159.9,44.5,155.4,40,149.9,40z
		 M139.9,96h-36V60h36V96z"/>
</g>
</svg>
