<?xml version="1.0" encoding="utf-8"?>
<!-- Generator: Adobe Illustrator 22.0.1, SVG Export Plug-In . SVG Version: 6.00 Build 0)  -->
<svg version="1.1" id="Layer_1" fill="#2c2e47" xmlns="http://www.w3.org/2000/svg" xmlns:xlink="http://www.w3.org/1999/xlink" x="0px" y="0px"
	 viewBox="0 0 455.5 510.9" style="enable-background:new 0 0 455.5 510.9;" xml:space="preserve">
<g>
	<path d="M401.9,85c-2-0.3-4-0.5-6-0.8c-1.7-0.3-3.3-0.5-5-0.8c-0.3-0.1-0.6-0.1-0.9-0.1c-1.7-0.3-3.4-0.6-5.1-1
		c-0.3-0.1-0.6-0.1-0.8-0.2c-1.6-0.3-3.1-0.7-4.7-1c-0.4-0.1-0.8-0.2-1.2-0.3c-1.4-0.3-2.8-0.7-4.2-1c-0.6-0.1-1.2-0.3-1.7-0.4
		c-1.2-0.3-2.3-0.6-3.5-0.9c-0.8-0.2-1.6-0.4-2.4-0.6c-1-0.3-1.9-0.6-2.9-0.8c-0.9-0.3-1.9-0.6-2.8-0.8c-0.9-0.3-1.8-0.6-2.7-0.9
		c-44.5-14.4-75.8-39.5-95.7-60.4c-0.6-0.6-1.2-1.2-1.7-1.8C251.9,4.7,240.2,0,227.7,0c-13.3,0-25.6,5.3-34.8,14.9
		c-1.1,1.2-2.2,2.3-3.3,3.4c-0.2,0.2-0.3,0.3-0.5,0.5c-1.1,1.1-2.2,2.2-3.3,3.2c0,0-0.1,0.1-0.1,0.1c-2.4,2.3-4.7,4.5-7.2,6.6
		c-0.2,0.2-0.4,0.3-0.6,0.5c-1,0.9-2,1.7-2.9,2.6c-0.3,0.3-0.6,0.5-0.9,0.8c-0.9,0.7-1.8,1.5-2.7,2.2c-0.4,0.3-0.7,0.6-1.1,0.9
		c-0.8,0.7-1.7,1.4-2.5,2c-0.4,0.3-0.8,0.7-1.3,1c-0.7,0.5-1.4,1-2,1.5C146.3,54,123.4,67.1,95.3,75.9c-0.1,0-0.3,0.1-0.4,0.1
		c-1.3,0.4-2.5,0.8-3.8,1.1c-0.7,0.2-1.5,0.4-2.2,0.6c-0.8,0.2-1.6,0.4-2.4,0.7c-1.2,0.3-2.3,0.6-3.5,0.9c-0.5,0.1-1,0.2-1.4,0.4
		c-1.5,0.4-3,0.7-4.4,1.1c-0.3,0.1-0.6,0.1-0.9,0.2c-1.6,0.4-3.3,0.7-5,1.1c-0.2,0-0.5,0.1-0.7,0.1c-1.7,0.3-3.4,0.7-5.1,1
		c-0.4,0.1-0.8,0.1-1.2,0.2c-1.6,0.3-3.1,0.5-4.7,0.8c-2,0.3-4,0.6-6,0.8c-26,3.3-46.3,22.8-52,47.2c-0.1,0.4-0.2,0.8-0.3,1.2
		c-0.1,0.6-0.2,1.1-0.4,1.7c-1.1,5.9-1.3,12.1-0.5,18.4c7,57.2,28.2,195.6,74.6,246.3c37.2,40.7,83.7,76.6,116.1,99.5
		c10.9,7.8,23.8,11.6,36.6,11.6s25.6-3.9,36.6-11.6c32.4-22.9,78.8-58.8,116.1-99.5c46.4-50.7,67.6-189.2,74.6-246.3
		C459.1,120,435.3,89.3,401.9,85z M440.1,151.7c-4.1,33.3-11.5,83-23.8,130.7c-13.5,51.9-29.2,88.1-46.9,107.4
		c-36.3,39.7-81.9,74.9-113.7,97.4c-16.7,11.8-39.2,11.8-55.9,0c-31.8-22.5-77.3-57.7-113.7-97.4c-17.7-19.3-33.5-55.5-46.9-107.4
		C26.9,234.7,19.4,185,15.4,151.7c-3.1-25.4,14.9-48.6,40.1-51.8c4.4-0.5,8.7-1.2,13.1-2c0.8-0.1,1.6-0.3,2.4-0.5
		c1.2-0.2,2.4-0.5,3.6-0.7c1.7-0.3,3.3-0.7,5-1.1c0.3-0.1,0.6-0.1,0.9-0.2c8.1-1.9,15.9-4,23.3-6.5c0.2-0.1,0.4-0.1,0.5-0.2
		c0,0,0,0,0.1,0c46-15.5,78.7-41.7,99.5-63.6c2.7-2.9,5.9-5.2,9.3-6.9c4-1.9,8.3-3,12.8-3.3c0.6,0,1.2,0,1.7,0
		c9.1,0,17.7,3.6,23.9,10.2c1.1,1.1,2.2,2.3,3.4,3.5c0.3,0.3,0.6,0.6,1,1c0.9,0.9,1.7,1.7,2.6,2.6c0.3,0.3,0.6,0.6,1,0.9
		c1.1,1.1,2.3,2.2,3.5,3.3c0.3,0.3,0.6,0.5,0.9,0.8c0.9,0.8,1.8,1.6,2.7,2.5c0.5,0.4,1,0.9,1.5,1.3c0.8,0.7,1.5,1.3,2.3,2
		c0.5,0.4,1,0.9,1.5,1.3c0.8,0.7,1.6,1.4,2.5,2.1c0.4,0.4,0.9,0.7,1.3,1.1c1.2,0.9,2.3,1.9,3.5,2.8c0.1,0.1,0.2,0.2,0.3,0.3
		c24.9,19.3,58.4,37.7,101.6,46.4c0.7,0.1,1.4,0.3,2.1,0.4c1.3,0.3,2.6,0.5,3.9,0.7c1.9,0.3,3.8,0.6,5.7,0.9c0.2,0,0.4,0.1,0.6,0.1
		c2.2,0.3,4.5,0.7,6.7,0.9C425.2,103.1,443.2,126.3,440.1,151.7z"/>
	<path d="M376.1,134c-49.3-9.5-93.5-31-131.4-63.7c-9.7-8.3-24.2-8.3-33.8,0C173,103.1,128.8,124.5,79.5,134
		c-15,2.9-25.2,17.1-23.1,32.3c3.5,25.6,10.6,73.5,19.2,106.6c15.6,60.2,30.7,83.1,38.3,91.5c25,27.3,71.4,63.8,96.8,83.1
		c5,3.8,11.1,5.7,17.1,5.7s12.1-1.9,17.1-5.7c25.4-19.3,71.8-55.8,96.8-83.1c7.6-8.3,22.7-31.2,38.3-91.5
		c8.6-33,15.7-80.9,19.2-106.6C401.3,151.1,391.1,136.9,376.1,134z M384.3,164.4c-3.4,25.3-10.5,72.5-18.8,104.8
		c-15.8,60.9-30.7,80.5-34.8,85.1c-25.1,27.4-74.7,66-94.8,81.3c-4.8,3.6-11.4,3.6-16.1,0c-20.1-15.3-69.7-53.9-94.8-81.3
		c-4.2-4.6-19.1-24.2-34.8-85.1c-8.4-32.3-15.4-79.5-18.8-104.8c-1-7.4,3.9-14.2,11.1-15.6c51.9-10,98.5-32.6,138.3-67.1
		c2-1.8,4.6-2.6,7.1-2.6s5.1,0.9,7.1,2.6c39.9,34.5,86.4,57.1,138.3,67.1C380.4,150.2,385.3,157,384.3,164.4z"/>
	<path d="M287,205.4l-61,60.4l-39.8-32.2c-5.6-4.6-24.6-14.1-38.2,3.9c-13.6,18-1.7,33.7,3.9,38.2l14.5,11.8
		c0.3,0.3,0.5,0.5,0.8,0.8l43.4,35.1c4.8,3.9,10.9,6.1,17.2,6.1c7.2,0,14-2.8,19.1-7.9l78.3-77.6c10.6-10.5,10.7-27.8,0.2-38.4
		C314.9,195,297.6,194.9,287,205.4z M314.6,233.4L236.3,311c-6.2,6-13,3.5-16.3,0.8l-36.3-29.4c-0.2-0.2-0.4-0.4-0.7-0.6l-21.7-17.7
		c-2.5-2.1-8-8.8-1.8-17.2c6.3-8.4,14.6-3.8,17.2-1.8l44.9,36.6c3,2.4,7.3,2.2,10-0.5l65.8-65.2c4.8-4.7,12.5-4.7,17.3,0.1
		C319.4,220.9,319.4,228.6,314.6,233.4z"/>
</g>
</svg>
